<svg xmlns="http://www.w3.org/2000/svg" viewBox="0 0 1200 480" width="1200" height="480">
<rect width="1200" height="480" fill="#fff"/>
<style>text{font-family:Arial,Helvetica,sans-serif;fill:#1D1D1F}</style>
<text x="16" y="24" font-size="16" font-weight="600" fill="#1D1D1F" text-anchor="start">Open-Drain-Lehrrechnung. Vio = 3,3 V, Cb = 100 pF, IOL = 3 mA bei VOL,max = 0,4 V.</text>
<text x="16" y="46" font-size="14" font-weight="400" fill="#5F6368" text-anchor="start">Annahme, keine Messung. tr = 0,8473 * Rp * Cb fuer 30 bis 70 Prozent.</text>
<text x="40" y="78" font-size="14" font-weight="600" fill="#E65100" text-anchor="start">Vio</text>
<line x1="70" y1="86" x2="70" y2="120" stroke="#E65100" stroke-width="2"/>
<rect x="55" y="120" width="30" height="46" fill="#fff" stroke="#E65100" stroke-width="1.6"/>
<text x="60" y="148" font-size="14" font-weight="600" fill="#E65100" text-anchor="start">Rp</text>
<line x1="70" y1="166" x2="70" y2="200" stroke="#1D1D1F" stroke-width="2"/>
<line x1="70" y1="200" x2="260" y2="200" stroke="#1565C0" stroke-width="2.4"/>
<text x="140" y="192" font-size="13" font-weight="400" fill="#1565C0" text-anchor="start">SDA oder SCL</text>
<line x1="260" y1="200" x2="260" y2="250" stroke="#5F6368" stroke-width="2"/>
<text x="268" y="230" font-size="14" font-weight="400" fill="#5F6368" text-anchor="start">Cb</text>
<line x1="240" y1="250" x2="280" y2="250" stroke="#546E7A" stroke-width="2"/>
<line x1="120" y1="200" x2="120" y2="250" stroke="#1B5E20" stroke-width="2"/>
<line x1="180" y1="200" x2="180" y2="250" stroke="#B71C1C" stroke-width="2"/>
<text x="100" y="270" font-size="14" font-weight="600" fill="#1B5E20" text-anchor="start">A</text>
<text x="168" y="270" font-size="14" font-weight="600" fill="#B71C1C" text-anchor="start">B</text>
<line x1="90" y1="290" x2="210" y2="290" stroke="#546E7A" stroke-width="2"/>
<text x="230" y="288" font-size="14" font-weight="400" fill="#546E7A" text-anchor="start">GND</text>
<text x="340" y="100" font-size="15" font-weight="600" fill="#1B5E20" text-anchor="start">beide los: HIGH</text>
<text x="340" y="128" font-size="15" font-weight="600" fill="#1565C0" text-anchor="start">nur A oder nur B: LOW</text>
<text x="340" y="156" font-size="15" font-weight="600" fill="#1565C0" text-anchor="start">beide ziehen: LOW</text>
<text x="340" y="184" font-size="14" font-weight="400" fill="#5F6368" text-anchor="start">HIGH heisst freigegeben, nicht aktiv getrieben.</text>
<text x="340" y="214" font-size="15" font-weight="600" fill="#B71C1C" text-anchor="start">Push-Pull HIGH gegen LOW ist ein Konflikt.</text>
<text x="340" y="242" font-size="14" font-weight="600" fill="#B71C1C" text-anchor="start">Open-Drain begrenzt diesen einen Fall, nicht jede Fehlverdrahtung.</text>
<text x="16" y="330" font-size="15" font-weight="600" fill="#1D1D1F" text-anchor="start">Anstieg nach dem Loslassen, RC-Modell ab 0 V.</text>
<polyline points="40.0,450.0 46.0,446.5 52.0,443.1 58.0,439.8 64.0,436.7 70.0,433.7 76.0,430.8 82.0,428.0 88.0,425.4 94.0,422.8 100.0,420.3 106.0,418.0 112.0,415.7 118.0,413.5 124.0,411.4 130.0,409.4 136.0,407.5 142.0,405.6 148.0,403.8 154.0,402.1 160.0,400.4 166.0,398.9 172.0,397.3 178.0,395.9 184.0,394.5 190.0,393.1 196.0,391.8 202.0,390.6 208.0,389.4 214.0,388.2 220.0,387.1 226.0,386.0 232.0,385.0 238.0,384.0 244.0,383.1 250.0,382.2 256.0,381.3 262.0,380.5 268.0,379.7 274.0,378.9 280.0,378.2 286.0,377.5 292.0,376.8 298.0,376.1 304.0,375.5 310.0,374.9 316.0,374.3 322.0,373.7 328.0,373.2 334.0,372.7 340.0,372.2 346.0,371.7 352.0,371.2 358.0,370.8 364.0,370.4 370.0,370.0 376.0,369.6 382.0,369.2 388.0,368.8 394.0,368.5 400.0,368.2 406.0,367.8 412.0,367.5 418.0,367.2 424.0,367.0 430.0,366.7 436.0,366.4 442.0,366.2 448.0,365.9 454.0,365.7 460.0,365.5 466.0,365.3 472.0,365.1 478.0,364.9 484.0,364.7 490.0,364.5 496.0,364.3 502.0,364.1 508.0,364.0 514.0,363.8 520.0,363.7" fill="none" stroke="#1565C0" stroke-width="2.4" stroke-linejoin="miter" stroke-linecap="square"/>
<line x1="93.50124159080985" y1="423.0" x2="93.50124159080985" y2="450" stroke="#5F6368" stroke-width="1" stroke-dasharray="3 3"/>
<text x="97.50124159080985" y="419.0" font-size="13" font-weight="600" fill="#6A1B9A" text-anchor="start">30%</text>
<line x1="220.5959206488904" y1="387.0" x2="220.5959206488904" y2="450" stroke="#5F6368" stroke-width="1" stroke-dasharray="3 3"/>
<text x="224.5959206488904" y="383.0" font-size="13" font-weight="600" fill="#6A1B9A" text-anchor="start">70%</text>
<text x="560" y="360" font-size="16" font-weight="600" fill="#E65100" text-anchor="start">4,7 kOhm: etwa 398 ns</text>
<text x="560" y="388" font-size="16" font-weight="600" fill="#1B5E20" text-anchor="start">2,2 kOhm: etwa 186 ns</text>
<text x="560" y="416" font-size="16" font-weight="600" fill="#6A1B9A" text-anchor="start">Fast-Mode 300 ns: Rp,max etwa 3,54 kOhm</text>
<text x="560" y="444" font-size="16" font-weight="600" fill="#B71C1C" text-anchor="start">Rp,min etwa 967 Ohm. 2,2 kOhm liegt dazwischen.</text>
<text x="16" y="472" font-size="14" font-weight="400" fill="#5F6368" text-anchor="start">Zwei 4,7-kOhm-Modul-Pull-ups parallel: 2,35 kOhm. Standard-Mode-Grenze 1000 ns. Datenblattgrenzen extra pruefen.</text>
</svg>
