<svg xmlns="http://www.w3.org/2000/svg" viewBox="0 0 1280 520" width="1280" height="520">
<rect width="1280" height="520" fill="#fff"/>
<style>text{font-family:Arial,Helvetica,sans-serif;fill:#1D1D1F}</style>
<text x="16" y="24" font-size="18" font-weight="600" fill="#1D1D1F" text-anchor="start">UART 8N1, 115200 Baud, Byte 0x53, LSB first. Ideales Modell.</text>
<text x="16" y="46" font-size="15" font-weight="400" fill="#5F6368" text-anchor="start">Tbit = 1/115200 = 8,681 us. Tframe = 10 Tbit = 86,806 us. Even Parity von 0x53 ist 0.</text>
<polyline points="70.0,78.0 116.0,78.0 116.0,78.0 162.0,78.0 162.0,150.0 208.0,150.0 208.0,150.0 254.0,150.0 254.0,78.0 300.0,78.0 300.0,78.0 346.0,78.0 346.0,78.0 392.0,78.0 392.0,78.0 438.0,78.0 438.0,150.0 484.0,150.0 484.0,150.0 530.0,150.0 530.0,150.0 576.0,150.0 576.0,150.0 622.0,150.0 622.0,78.0 668.0,78.0 668.0,78.0 714.0,78.0 714.0,150.0 760.0,150.0 760.0,150.0 806.0,150.0 806.0,78.0 852.0,78.0 852.0,78.0 898.0,78.0 898.0,150.0 944.0,150.0 944.0,150.0 990.0,150.0 990.0,78.0 1036.0,78.0 1036.0,78.0 1082.0,78.0 1082.0,78.0 1128.0,78.0" fill="none" stroke="#1565C0" stroke-width="2.8" stroke-linejoin="miter" stroke-linecap="square"/>
<text x="116.0" y="176" font-size="13" font-weight="400" fill="#1D1D1F" text-anchor="middle">Idle</text>
<text x="208.0" y="176" font-size="13" font-weight="400" fill="#1D1D1F" text-anchor="middle">Start</text>
<text x="300.0" y="176" font-size="13" font-weight="400" fill="#1D1D1F" text-anchor="middle">d0</text>
<text x="392.0" y="176" font-size="13" font-weight="400" fill="#1D1D1F" text-anchor="middle">d1</text>
<text x="484.0" y="176" font-size="13" font-weight="400" fill="#1D1D1F" text-anchor="middle">d2</text>
<text x="576.0" y="176" font-size="13" font-weight="400" fill="#1D1D1F" text-anchor="middle">d3</text>
<text x="668.0" y="176" font-size="13" font-weight="400" fill="#1D1D1F" text-anchor="middle">d4</text>
<text x="760.0" y="176" font-size="13" font-weight="400" fill="#1D1D1F" text-anchor="middle">d5</text>
<text x="852.0" y="176" font-size="13" font-weight="400" fill="#1D1D1F" text-anchor="middle">d6</text>
<text x="944.0" y="176" font-size="13" font-weight="400" fill="#1D1D1F" text-anchor="middle">d7</text>
<text x="1036.0" y="176" font-size="13" font-weight="400" fill="#1D1D1F" text-anchor="middle">Stop</text>
<text x="16" y="196" font-size="14" font-weight="600" fill="#6A1B9A" text-anchor="start">Abtastung Daten 1,5 .. 8,5 Tbit nach der Startflanke, Stop bei 9,5. Punkte = Sample.</text>
<circle cx="300.0" cy="78.0" r="5" fill="#6A1B9A" stroke="#6A1B9A" stroke-width="1.5"/>
<circle cx="392.0" cy="78.0" r="5" fill="#6A1B9A" stroke="#6A1B9A" stroke-width="1.5"/>
<circle cx="484.0" cy="150.0" r="5" fill="#6A1B9A" stroke="#6A1B9A" stroke-width="1.5"/>
<circle cx="576.0" cy="150.0" r="5" fill="#6A1B9A" stroke="#6A1B9A" stroke-width="1.5"/>
<circle cx="668.0" cy="78.0" r="5" fill="#6A1B9A" stroke="#6A1B9A" stroke-width="1.5"/>
<circle cx="760.0" cy="150.0" r="5" fill="#6A1B9A" stroke="#6A1B9A" stroke-width="1.5"/>
<circle cx="852.0" cy="78.0" r="5" fill="#6A1B9A" stroke="#6A1B9A" stroke-width="1.5"/>
<circle cx="944.0" cy="150.0" r="5" fill="#6A1B9A" stroke="#6A1B9A" stroke-width="1.5"/>
<circle cx="1036.0" cy="78.0" r="5" fill="#6A1B9A" stroke="#6A1B9A" stroke-width="1.5"/>
<text x="162" y="214" font-size="13" font-weight="600" fill="#B71C1C" text-anchor="start">Startflanke</text>
<line x1="162" y1="70" x2="162" y2="160" stroke="#B71C1C" stroke-width="1" stroke-dasharray="4 3"/>
<text x="16" y="250" font-size="15" font-weight="600" fill="#1D1D1F" text-anchor="start">Ein Datenbit, 16-fach, Beispiel mit drei Samples um die Mitte. Controller werten unterschiedlich viele.</text>
<polyline points="40.0,270.0 68.0,270.0 68.0,270.0 96.0,270.0 96.0,270.0 124.0,270.0 124.0,270.0 152.0,270.0 152.0,270.0 180.0,270.0 180.0,270.0 208.0,270.0 208.0,270.0 236.0,270.0 236.0,270.0 264.0,270.0 264.0,270.0 292.0,270.0 292.0,270.0 320.0,270.0 320.0,270.0 348.0,270.0 348.0,270.0 376.0,270.0 376.0,270.0 404.0,270.0 404.0,270.0 432.0,270.0 432.0,270.0 460.0,270.0 460.0,270.0 488.0,270.0" fill="none" stroke="#1565C0" stroke-width="2.4" stroke-linejoin="miter" stroke-linecap="square"/>
<line x1="40" y1="334" x2="40" y2="346" stroke="#5F6368" stroke-width="1"/>
<circle cx="54.0" cy="270.0" r="2.2" fill="#5F6368" stroke="#5F6368" stroke-width="1.5"/>
<line x1="68" y1="334" x2="68" y2="346" stroke="#5F6368" stroke-width="1"/>
<circle cx="82.0" cy="270.0" r="2.2" fill="#5F6368" stroke="#5F6368" stroke-width="1.5"/>
<line x1="96" y1="334" x2="96" y2="346" stroke="#5F6368" stroke-width="1"/>
<circle cx="110.0" cy="270.0" r="2.2" fill="#5F6368" stroke="#5F6368" stroke-width="1.5"/>
<line x1="124" y1="334" x2="124" y2="346" stroke="#5F6368" stroke-width="1"/>
<circle cx="138.0" cy="270.0" r="2.2" fill="#5F6368" stroke="#5F6368" stroke-width="1.5"/>
<line x1="152" y1="334" x2="152" y2="346" stroke="#5F6368" stroke-width="1"/>
<circle cx="166.0" cy="270.0" r="2.2" fill="#5F6368" stroke="#5F6368" stroke-width="1.5"/>
<line x1="180" y1="334" x2="180" y2="346" stroke="#5F6368" stroke-width="1"/>
<circle cx="194.0" cy="270.0" r="2.2" fill="#5F6368" stroke="#5F6368" stroke-width="1.5"/>
<line x1="208" y1="334" x2="208" y2="346" stroke="#5F6368" stroke-width="1"/>
<circle cx="222.0" cy="270.0" r="2.2" fill="#5F6368" stroke="#5F6368" stroke-width="1.5"/>
<line x1="236" y1="334" x2="236" y2="346" stroke="#5F6368" stroke-width="1"/>
<circle cx="250.0" cy="270.0" r="4.5" fill="#6A1B9A" stroke="#6A1B9A" stroke-width="1.5"/>
<line x1="264" y1="334" x2="264" y2="346" stroke="#5F6368" stroke-width="1"/>
<circle cx="278.0" cy="270.0" r="4.5" fill="#6A1B9A" stroke="#6A1B9A" stroke-width="1.5"/>
<line x1="292" y1="334" x2="292" y2="346" stroke="#5F6368" stroke-width="1"/>
<circle cx="306.0" cy="270.0" r="4.5" fill="#6A1B9A" stroke="#6A1B9A" stroke-width="1.5"/>
<line x1="320" y1="334" x2="320" y2="346" stroke="#5F6368" stroke-width="1"/>
<circle cx="334.0" cy="270.0" r="2.2" fill="#5F6368" stroke="#5F6368" stroke-width="1.5"/>
<line x1="348" y1="334" x2="348" y2="346" stroke="#5F6368" stroke-width="1"/>
<circle cx="362.0" cy="270.0" r="2.2" fill="#5F6368" stroke="#5F6368" stroke-width="1.5"/>
<line x1="376" y1="334" x2="376" y2="346" stroke="#5F6368" stroke-width="1"/>
<circle cx="390.0" cy="270.0" r="2.2" fill="#5F6368" stroke="#5F6368" stroke-width="1.5"/>
<line x1="404" y1="334" x2="404" y2="346" stroke="#5F6368" stroke-width="1"/>
<circle cx="418.0" cy="270.0" r="2.2" fill="#5F6368" stroke="#5F6368" stroke-width="1.5"/>
<line x1="432" y1="334" x2="432" y2="346" stroke="#5F6368" stroke-width="1"/>
<circle cx="446.0" cy="270.0" r="2.2" fill="#5F6368" stroke="#5F6368" stroke-width="1.5"/>
<line x1="460" y1="334" x2="460" y2="346" stroke="#5F6368" stroke-width="1"/>
<circle cx="474.0" cy="270.0" r="2.2" fill="#5F6368" stroke="#5F6368" stroke-width="1.5"/>
<text x="264" y="368" font-size="14" font-weight="400" fill="#6A1B9A" text-anchor="middle">Mehrheit der markierten Samples, hier HIGH</text>
<text x="560" y="250" font-size="15" font-weight="600" fill="#1D1D1F" text-anchor="start">Zwei Bitzeitraster laufen ueber den Frame auseinander.</text>
<text x="560" y="272" font-size="14" font-weight="400" fill="#5F6368" text-anchor="start">Naechster gueltiger Start synchronisiert neu. Kein festes Toleranzlimit.</text>
<text x="560" y="304" font-size="13" font-weight="400" fill="#1565C0" text-anchor="start">Soll</text>
<circle cx="700.0" cy="300.0" r="4" fill="#1565C0" stroke="#1565C0" stroke-width="1.5"/>
<circle cx="736.0" cy="300.0" r="4" fill="#1565C0" stroke="#1565C0" stroke-width="1.5"/>
<circle cx="772.0" cy="300.0" r="4" fill="#1565C0" stroke="#1565C0" stroke-width="1.5"/>
<circle cx="808.0" cy="300.0" r="4" fill="#1565C0" stroke="#1565C0" stroke-width="1.5"/>
<circle cx="844.0" cy="300.0" r="4" fill="#1565C0" stroke="#1565C0" stroke-width="1.5"/>
<circle cx="880.0" cy="300.0" r="4" fill="#1565C0" stroke="#1565C0" stroke-width="1.5"/>
<circle cx="916.0" cy="300.0" r="4" fill="#1565C0" stroke="#1565C0" stroke-width="1.5"/>
<circle cx="952.0" cy="300.0" r="4" fill="#1565C0" stroke="#1565C0" stroke-width="1.5"/>
<circle cx="988.0" cy="300.0" r="4" fill="#1565C0" stroke="#1565C0" stroke-width="1.5"/>
<text x="560" y="332" font-size="13" font-weight="400" fill="#B71C1C" text-anchor="start">etwas kuerzer</text>
<circle cx="700.0" cy="328.0" r="4" fill="#B71C1C" stroke="#B71C1C" stroke-width="1.5"/>
<circle cx="733.0" cy="328.0" r="4" fill="#B71C1C" stroke="#B71C1C" stroke-width="1.5"/>
<circle cx="766.0" cy="328.0" r="4" fill="#B71C1C" stroke="#B71C1C" stroke-width="1.5"/>
<circle cx="799.0" cy="328.0" r="4" fill="#B71C1C" stroke="#B71C1C" stroke-width="1.5"/>
<circle cx="832.0" cy="328.0" r="4" fill="#B71C1C" stroke="#B71C1C" stroke-width="1.5"/>
<circle cx="865.0" cy="328.0" r="4" fill="#B71C1C" stroke="#B71C1C" stroke-width="1.5"/>
<circle cx="898.0" cy="328.0" r="4" fill="#B71C1C" stroke="#B71C1C" stroke-width="1.5"/>
<circle cx="931.0" cy="328.0" r="4" fill="#B71C1C" stroke="#B71C1C" stroke-width="1.5"/>
<circle cx="964.0" cy="328.0" r="4" fill="#B71C1C" stroke="#B71C1C" stroke-width="1.5"/>
<text x="16" y="410" font-size="15" font-weight="600" fill="#B71C1C" text-anchor="start">0x53 hat vier Einsen. Even-Parity-Bit = 0. Ein einzelner Kipper faellt auf, zwei Kipper koennen bleiben.</text>
<text x="16" y="438" font-size="15" font-weight="600" fill="#1D1D1F" text-anchor="start">Stop falsch = Framing-Fehler. Parity falsch = eigener Status. Beides ist noch kein Paketprotokoll.</text>
<text x="16" y="468" font-size="14" font-weight="400" fill="#5F6368" text-anchor="start">Optional 8E1: 11 Symbole, Datenanteil 8/11 etwa 72,7 Prozent. Leitungsrate bleibt 115200 Baud.</text>
<text x="16" y="500" font-size="14" font-weight="400" fill="#5F6368" text-anchor="start">Direkt 0/3,3 V nur bei gemeinsamem Bezug. Ein UART-Pin vertraegt deshalb noch keine RS-232-Pegel.</text>
</svg>
